<svg width="33" height="33" viewBox="0 0 33 33" fill="none" xmlns="http://www.w3.org/2000/svg">
<rect width="33" height="33" rx="5" fill="#FFAB08"/>
<path d="M25.3546 7.31111L28.1423 7.22302V17.0886H24.7793L25.3546 7.31111Z" fill="#FFA132"/>
<ellipse cx="16.7699" cy="24.3116" rx="3.31877" ry="4.2281" fill="#FFA132"/>
<path d="M10.6816 10.5262C10.6816 12.8613 9.06294 12.4641 7.23003 12.4641C5.39712 12.4641 4.17676 11.8475 4.17676 11.0107C4.17676 8.67556 5.52987 8.36812 7.36278 8.36812C9.19569 8.36812 10.6816 8.1911 10.6816 10.5262Z" fill="#FFA132"/>
<path d="M2.52785 2.93944C2.3645 3.03048 2.14889 3.22558 2.03781 3.37515L1.8418 3.65479V7.14049V10.6327L2.01168 11.0684C2.62586 12.6357 3.94569 13.6762 5.53341 13.8388L5.95811 13.8843L5.99078 21.7531L6.02345 29.622L6.1672 29.8561C6.25214 29.9862 6.44162 30.1748 6.59189 30.2788C6.83365 30.4479 6.91859 30.4674 7.36289 30.4674C7.80065 30.4674 7.89213 30.4479 8.12081 30.2918C8.25802 30.1943 8.4475 30.0057 8.53898 29.8691L8.70232 29.6285L8.73499 21.7596L8.76766 13.8843L9.19236 13.8388C10.8193 13.6762 12.2437 12.5121 12.7402 10.9579C12.884 10.5091 12.884 10.4376 12.884 7.08196V3.66129L12.7076 3.40766C12.4201 3.00447 12.1195 2.83538 11.6164 2.80937C11.0806 2.78336 10.6951 2.95895 10.4011 3.37515L10.2051 3.65479L10.1724 5.28708L10.1398 6.92589H9.45371H8.76766L8.73499 5.29359C8.70232 3.6873 8.70232 3.66129 8.53898 3.42717C8.26456 3.01747 7.93133 2.83538 7.43476 2.80937C6.89899 2.78336 6.51349 2.95895 6.21947 3.37515L6.02345 3.65479L5.99078 5.28708L5.95811 6.92589H5.27206H4.58601L4.55334 5.29359L4.52067 3.66129L4.34426 3.40766C4.05677 3.00447 3.75621 2.83538 3.25311 2.80937C2.89374 2.78986 2.7696 2.81588 2.52785 2.93944ZM10.1071 9.88483C10.1071 10.2815 9.78694 10.7172 9.32304 10.9644C9.11396 11.0749 8.93101 11.0879 7.36289 11.0879C5.71636 11.0879 5.61835 11.0814 5.37007 10.9449C4.92577 10.7107 4.61868 10.275 4.61868 9.88483V9.68974H7.36289H10.1071V9.88483Z" fill="white"/>
<path d="M16.0721 2.93944C15.9088 3.03048 15.6931 3.22558 15.5821 3.37515L15.3861 3.65479L15.3534 10.9058L15.3207 18.1569L14.7719 18.3195C13.3998 18.7097 12.374 19.5291 11.799 20.6801C11.2959 21.7011 11.2109 22.1238 11.2109 23.6065C11.2109 24.6926 11.2305 24.9527 11.3481 25.4274C11.9885 27.9442 13.4063 29.661 15.3861 30.3178C15.7716 30.4414 15.9806 30.4674 16.7255 30.4674C17.4704 30.4674 17.6794 30.4414 18.0649 30.3178C20.0447 29.661 21.4625 27.9442 22.1028 25.4274C22.2205 24.9527 22.2401 24.6926 22.2401 23.6065C22.2401 22.514 22.2205 22.2669 22.0963 21.8182C21.6063 20.0168 20.4367 18.8202 18.6791 18.3195L18.1303 18.1569L18.0976 10.9123L18.0649 3.66129L17.8885 3.40767C17.601 3.00447 17.3005 2.83539 16.7974 2.80937C16.438 2.78986 16.3139 2.81588 16.0721 2.93944ZM18.0127 21.0053C18.7445 21.2524 19.2214 21.8182 19.4044 22.6376C19.5285 23.2034 19.4566 24.621 19.2737 25.1998C18.9339 26.2664 18.2871 27.1638 17.588 27.515C17.1502 27.7361 16.3073 27.7426 15.8761 27.5215C15.1312 27.1378 14.5301 26.3054 14.1642 25.1673C14.0336 24.7381 14.014 24.5495 14.014 23.6065C14.014 22.5595 14.0205 22.527 14.2034 22.1238C14.5301 21.4215 15.1966 20.9663 16.0721 20.8492C16.0721 20.8492 17.6076 20.8752 18.0127 21.0053Z" fill="white"/>
<path d="M28.6697 2.91342C27.8334 3.34914 26.5397 4.53272 25.7425 5.57973C23.7563 8.21352 22.5998 11.9333 22.3319 16.5831C22.2339 18.2869 22.2796 18.5406 22.7304 18.9893C23.1682 19.425 23.2858 19.4445 25.7687 19.4445H27.8987V24.4715V29.5049L28.049 29.7781C28.1274 29.9341 28.3234 30.1488 28.4802 30.2658C28.735 30.4479 28.8004 30.4674 29.2643 30.4674C29.7086 30.4674 29.8 30.4479 30.0287 30.2918C30.1659 30.1943 30.3554 30.0057 30.4469 29.8691L30.6102 29.6285V16.6481V3.66129L30.4338 3.40766C30.1463 2.99796 29.8458 2.83538 29.3427 2.80937C29.016 2.79637 28.8526 2.81588 28.6697 2.91342ZM27.8987 12.0309V16.6481H26.5135H25.1349L25.1806 15.9783C25.2982 14.1899 25.736 12.0309 26.3044 10.4376C26.6834 9.38409 27.7027 7.41363 27.866 7.41363C27.8856 7.41363 27.8987 9.48814 27.8987 12.0309Z" fill="white"/>
</svg>
